<?xml version="1.0" standalone="no"?>
<!DOCTYPE svg PUBLIC "-//W3C//DTD SVG 1.1//EN" "http://www.w3.org/Graphics/SVG/1.1/DTD/svg11.dtd" >
<svg xmlns="http://www.w3.org/2000/svg">
<metadata>
This is a custom SVG webfont generated by Font Squirrel.
Copyright   : Copyright  1993 1994 2001 Adobe Systems Incorporated  All Rights Reserved
Designer    : Herb Lubalin Tom Carnase Ed Benguiat Adobe Type Staff
Foundry URL : httpwwwadobecomtype
</metadata>
<defs>
<font id="ITCAvantGardeGothicStdMdOb" horiz-adv-x="1208" >
<font-face units-per-em="2048" ascent="1516" descent="-532" />
<missing-glyph horiz-adv-x="604" />
<glyph unicode=" "  horiz-adv-x="604" />
<glyph unicode="&#x09;" horiz-adv-x="604" />
<glyph unicode="&#xa0;" horiz-adv-x="604" />
<glyph unicode="!" horiz-adv-x="614" d="M197 0l49 266h221l-49 -266h-221zM276 428l201 1088h221l-200 -1088h-222z" />
<glyph unicode="&#x22;" horiz-adv-x="829" d="M340 909l113 607h165l-112 -607h-166zM657 909l113 607h168l-113 -607h-168z" />
<glyph unicode="#" d="M145 510l43 145h254l68 209h-252l47 148h254l123 381h152l-123 -381h219l123 381h151l-123 -381h265l-48 -148h-268l-67 -209h264l-43 -145h-269l-135 -418h-149l135 418h-219l-135 -418h-154l137 418h-250zM594 655h219l68 209h-219z" />
<glyph unicode="$" d="M252 461h221q-12 -106 41 -167t139 -61q90 0 162 62.5t88 150.5q10 51 -3 92.5t-34.5 67t-68.5 51t-77 37t-91 31.5q-279 90 -228 362q29 158 139.5 257.5t254.5 128.5l34 188h181l-35 -188q137 -25 199.5 -124.5t37.5 -238.5h-202q8 88 -39 141.5t-119 53.5 q-78 0 -144.5 -56.5t-82.5 -140.5q-10 -53 2 -92t56 -67.5t81 -45t117 -45.5q137 -53 204.5 -153.5t42.5 -235.5q-27 -139 -138 -255t-275 -151l-37 -200h-180l37 200q-158 18 -232 134.5t-51 263.5z" />
<glyph unicode="%" horiz-adv-x="1630" d="M283 1190v2q29 147 148.5 249.5t269 102.5t232.5 -102.5t54 -251.5q-27 -150 -147.5 -251t-270.5 -101q-147 0 -230 101t-56 251zM348 0l1047 1516h159l-1046 -1516h-160zM432 1188q-16 -86 31 -144.5t133 -58.5t155.5 59.5t86 147.5t-30.5 146.5t-135 58.5t-154.5 -58.5 t-83.5 -148.5zM922 326l2 2q27 147 148.5 249.5t270.5 102.5q147 0 230.5 -102.5t54.5 -251.5q-27 -150 -148.5 -252.5t-269.5 -102.5q-150 0 -232.5 101.5t-55.5 253.5zM1071 324q-16 -86 32 -145.5t136 -59.5q86 0 154.5 59.5t83.5 147.5q16 88 -30 146t-132 58 q-88 0 -158 -58t-86 -146v-2z" />
<glyph unicode="&#x26;" horiz-adv-x="1517" d="M182 403q49 266 418 443q-70 90 -98.5 168t-14.5 170q29 150 157 255t285.5 105t245 -103.5t60.5 -250.5q-14 -72 -49 -130.5t-89.5 -101.5t-95 -67.5t-102.5 -54.5l213 -267l242 351h225l-350 -494l246 -309l-175 -144l-219 279q-94 -133 -209.5 -207t-285.5 -74 q-217 0 -327 127t-77 305zM418 422q-18 -102 42 -174t173 -72q106 0 181 53.5t149 161.5l-256 322q-256 -119 -289 -291zM697 1163.5q-1 -16.5 2 -33t6.5 -28.5t11.5 -29l12 -24q4 -8 16.5 -25.5t16.5 -23t18.5 -22.5t16.5 -22q117 59 171 107.5t70 128.5q12 70 -26.5 121 t-114.5 51h-2q-72 0 -127 -50t-68 -118q-2 -16 -3 -32.5z" />
<glyph unicode="'" horiz-adv-x="477" d="M324 909l112 607h166l-113 -607h-165z" />
<glyph unicode="(" horiz-adv-x="923" d="M244.5 190.5q-17.5 157.5 15.5 309.5q61 324 292.5 617.5t580.5 426.5l-46 -239q-201 -100 -371.5 -316.5t-221.5 -490.5q-49 -270 40 -487.5t254 -317.5l-45 -242q-154 74 -264 190.5t-163.5 254t-71 295z" />
<glyph unicode=")" horiz-adv-x="923" d="M-25 -549l45 238q203 100 374 316t222 491q49 270 -40 487t-257 317l46 244q301 -145 421.5 -434t61.5 -616q-39 -209 -149.5 -409t-300.5 -373t-423 -261z" />
<glyph unicode="*" horiz-adv-x="1284" d="M498 1057l280 110l-241 107l96 129l201 -172l14 285h149l-90 -287l264 174l46 -129l-279 -109l242 -108l-101 -133l-196 176l-15 -285h-149l90 287l-260 -178z" />
<glyph unicode="+" horiz-adv-x="1228" d="M176 412l39 206h412l75 414h205l-76 -414h412l-39 -206h-411l-76 -412h-205l76 412h-412z" />
<glyph unicode="," horiz-adv-x="608" d="M35 -156l207 424h225l-248 -424h-184z" />
<glyph unicode="-" horiz-adv-x="561" d="M88 475l39 211h561l-39 -211h-561z" />
<glyph unicode="." horiz-adv-x="608" d="M195 0l49 266h223l-49 -266h-223z" />
<glyph unicode="/" horiz-adv-x="1144" d="M104 -205l940 1721h240l-940 -1721h-240z" />
<glyph unicode="0" d="M168 506l92 495q29 154 106.5 267.5t177 170t186.5 81t161 24.5q90 0 174 -31.5t152.5 -92t98.5 -168t5 -242.5l-92 -504q-23 -117 -77 -212t-121.5 -153.5t-147.5 -98.5t-149.5 -55.5t-131.5 -15.5q-82 0 -164 29t-155.5 86t-107.5 167t-7 253zM406 500 q-25 -133 38.5 -224.5t194.5 -91.5q123 0 223.5 92.5t122.5 223.5l96 516q12 43 4 98t-26.5 103.5t-74.5 81t-138 32.5q-133 0 -227.5 -92t-118.5 -229z" />
<glyph unicode="1" d="M463 1311l37 205h528l-280 -1516h-242l244 1311h-287z" />
<glyph unicode="2" d="M111 0l34 190q109 86 304.5 243t246.5 198q94 74 128 102.5t98.5 90t94.5 116.5t44 119q23 127 -37.5 199.5t-175.5 72.5q-119 0 -203 -90t-115 -237h-231q47 221 184 360q168 180 426 180q219 0 325.5 -135t68.5 -334q-27 -125 -100 -227.5t-222 -224.5 q-166 -139 -502 -418h670l-39 -205h-999z" />
<glyph unicode="3" d="M156 446h243q-14 -113 49.5 -186.5t180.5 -75.5q125 0 212 78t109 197q20 115 -53.5 191.5t-202.5 76.5h-112l32 182h72q115 0 198 64.5t99 150.5q16 88 -24.5 147.5t-127.5 59.5q-98 0 -157.5 -61.5t-79.5 -141.5h-238q47 209 203 312.5t322 103.5q182 0 280.5 -110.5 t67.5 -276.5q-39 -209 -264 -319q72 -27 122 -70t71.5 -86t29.5 -92t7 -81t-7 -63q-37 -203 -212 -339t-394 -136q-123 0 -229.5 50.5t-157.5 144.5q-64 118 -39 280z" />
<glyph unicode="4" d="M72 279l34 180l914 1057h237l-192 -1045h162l-37 -192h-162l-51 -279h-234l52 279h-723zM356 471h490l139 752z" />
<glyph unicode="5" d="M127 424h242q4 -106 77.5 -173t176.5 -67q127 0 237.5 94.5t132.5 223.5q25 131 -48 224t-206 93q-166 0 -295 -151l-186 49l283 799h768l-37 -205h-582l-137 -371q135 80 272 80q156 0 260.5 -80t138 -194.5t11.5 -237.5q-39 -209 -220 -373t-427 -164q-207 0 -338 123 t-123 330z" />
<glyph unicode="6" d="M150 518q35 190 206 393l527 605h276l-371 -420q-25 -27 -88 -99q74 39 164 39q193 0 312.5 -141t76.5 -373q-43 -233 -231 -392t-420 -159q-276 0 -395 189q-96 143 -57 358zM383 498q-25 -135 48 -224.5t204 -89.5q133 0 240.5 92.5t132.5 225.5q27 141 -48 231 t-202 90q-121 0 -233.5 -86t-141.5 -237v-2z" />
<glyph unicode="7" d="M199 0l854 1311h-656l37 205h905l-34 -189l-842 -1327h-264z" />
<glyph unicode="8" d="M176 457q27 133 109 236.5t209 150.5q-66 43 -106 120.5t-19 186.5v2q29 158 174 274.5t348 116.5t303 -116.5t70 -276.5q-20 -109 -88 -187.5t-150 -119.5q109 -47 153 -150.5t19 -236.5q-41 -209 -211 -347.5t-389 -138.5q-221 0 -340 138.5t-82 347.5zM418 457 q-18 -109 44 -191t177 -82t208 82t113.5 192.5t-42 192.5t-179 82t-208 -81t-111.5 -193zM600 1130q-14 -88 36 -148t138 -60t163 60t89 151q16 90 -34 151.5t-138 61.5t-163 -61.5t-91 -151.5v-3z" />
<glyph unicode="9" d="M238 993.5q43 233.5 231 392t420 158.5q276 0 395 -188q94 -141 55 -359q-37 -193 -204 -393l-527 -604h-276l370 420q14 16 44 49t45 49q-74 -39 -164 -39q-193 0 -312.5 140.5t-76.5 374zM483 1014q-27 -139 48 -229.5t200 -90.5q123 0 235.5 86t139.5 236v2 q25 135 -47 224t-205 89t-239.5 -91t-131.5 -226z" />
<glyph unicode=":" horiz-adv-x="608" d="M195 0l49 266h223l-49 -266h-223zM352 848l49 266h224l-50 -266h-223z" />
<glyph unicode=";" horiz-adv-x="608" d="M35 -156l209 424h225l-260 -424h-174zM350 848l49 266h224l-50 -266h-223z" />
<glyph unicode="&#x3c;" horiz-adv-x="1228" d="M174 414l39 204l1116 457l-41 -225l-874 -334l749 -334l-41 -225z" />
<glyph unicode="=" horiz-adv-x="1228" d="M133 174l37 207h1028l-37 -207h-1028zM221 651l37 205h1028l-37 -205h-1028z" />
<glyph unicode="&#x3e;" horiz-adv-x="1228" d="M90 -43l41 225l877 336l-752 332l41 225l948 -457l-39 -204z" />
<glyph unicode="?" horiz-adv-x="1161" d="M287 1051q2 10 5 24.5t3 20.5q51 207 219 327.5t358 120.5q203 0 309.5 -129t73.5 -305q-14 -82 -69.5 -162t-101.5 -121t-138 -114q-78 -63 -125 -122t-60 -92.5t-24 -80.5h-225q23 109 82 198t190 195q111 92 160 148.5t66 130.5q16 100 -34 165.5t-155 65.5 q-96 0 -176 -59.5t-110 -159.5q-6 -18 -15 -51h-233zM434 0l49 266h224l-50 -266h-223z" />
<glyph unicode="@" horiz-adv-x="1576" d="M164 525.5q-6 109.5 10 222.5q59 326 328.5 562t613.5 236q297 0 471 -184t121 -473q-45 -242 -216 -401.5t-323 -159.5q-66 0 -112.5 35.5t-44.5 113.5q-125 -145 -279 -145q-106 0 -175 84t-40 235q35 190 187.5 350t322.5 160q164 0 184 -143l54 115h143l-221 -496 q-37 -96 -37 -100q-23 -80 63 -80q92 0 210 124t153 306q45 242 -99.5 387t-379.5 145q-279 0 -505 -196.5t-280 -477.5q-10 -88 -7 -178t42 -175t99.5 -150.5t163 -105.5t233.5 -40q143 0 292.5 51.5t264.5 151.5l29 -104q-135 -117 -310.5 -171.5t-298.5 -54.5 q-152 0 -275.5 45t-199.5 122t-126 178.5t-56 211zM666 653q-18 -100 22.5 -146t102.5 -46q160 0 266 198q80 160 88 201q12 76 -25 124t-100 48q-109 0 -218.5 -114.5t-135.5 -262.5v-2z" />
<glyph unicode="A" horiz-adv-x="1486" d="M16 0l904 1516h219l331 -1516h-262l-78 358h-647l-204 -358h-263zM586 553h516l-133 682z" />
<glyph unicode="B" horiz-adv-x="1226" d="M145 0l281 1516h453q209 0 307 -82q105 -73 105 -218q0 -42 -9 -90q-41 -215 -252 -317q86 -29 138.5 -82t63.5 -114.5t11 -100.5t-6 -78q-23 -113 -87.5 -204t-160.5 -142q-88 -53 -171 -70.5t-228 -17.5h-445zM426 213h244q102 0 166 25q141 57 174 211q5 27 4 51 q0 112 -101 157q-57 27 -176 27h-223zM551 887h199q104 0 157 24q115 55 137 187q5 25 5 46q0 36 -13 65q-20 46 -61 67q-47 27 -154 27h-192z" />
<glyph unicode="C" horiz-adv-x="1660" d="M221 760q59 319 325.5 551.5t610.5 232.5q145 0 264 -48t193 -124t117 -159t57 -166h-256q-31 100 -136.5 191t-281.5 93q-236 0 -422 -168t-229 -403q-12 -64 -12 -122q0 -162 92 -286q125 -168 362 -168q102 0 195.5 33t161 87t101.5 88t60 69h254 q-113 -213 -336 -351.5t-475 -138.5q-338 0 -522 231q-138 173 -138 400q0 76 15 158z" />
<glyph unicode="D" horiz-adv-x="1482" d="M145 0l281 1516h469q430 0 578 -246q89 -139 89 -330q0 -85 -18 -180q-63 -348 -295.5 -554t-617.5 -206h-486zM426 213h256q258 0 416.5 147.5t204.5 395.5q15 76 15 143q0 141 -67 244q-106 160 -364 160h-258z" />
<glyph unicode="E" horiz-adv-x="1099" d="M145 0l281 1516h848l-39 -213h-606l-80 -431h598l-39 -210h-598l-84 -449h606l-39 -213h-848z" />
<glyph unicode="F" horiz-adv-x="1009" d="M145 0l281 1516h791l-39 -213h-549l-82 -443h540l-38 -211h-541l-121 -649h-242z" />
<glyph unicode="G" horiz-adv-x="1748" d="M219 762q61 336 335.5 559t608.5 223q242 0 419 -130t222 -329h-272q-45 88 -113 144q-123 102 -301 102q-225 0 -418.5 -157.5t-240.5 -411.5q-13 -70 -13 -132q0 -172 100 -288q136 -158 361 -158q205 0 371 113q164 109 227 270h-653l37 197h934q-37 -197 -131 -340 q-139 -217 -367.5 -335t-456.5 -118q-336 0 -523 229q-141 172 -141 403q0 77 15 159z" />
<glyph unicode="H" horiz-adv-x="1429" d="M145 0l281 1516h242l-119 -639h653l119 639h242l-281 -1516h-242l123 664h-653l-123 -664h-242z" />
<glyph unicode="I" horiz-adv-x="534" d="M145 0l281 1516h242l-281 -1516h-242z" />
<glyph unicode="J" horiz-adv-x="1069" d="M80 311q0 41 6 88h258q-2 -12 -2 -37q6 -90 55 -134t113 -44q72 2 125 36t80 83q33 61 55 170l193 1043h239l-182 -990q-43 -221 -102 -311q-66 -100 -168 -160q-137 -84 -293 -84q-33 0 -73 6.5t-95.5 28t-99.5 56t-75.5 100t-33.5 149.5z" />
<glyph unicode="K" horiz-adv-x="1290" d="M182 0l281 1516h242l-134 -717l689 717h256l-730 -756l508 -760h-297l-444 698l-129 -698h-242z" />
<glyph unicode="L" horiz-adv-x="937" d="M152 0l280 1516h242l-242 -1303h535l-39 -213h-776z" />
<glyph unicode="M" horiz-adv-x="1890" d="M145 0l281 1516h332l254 -1174l682 1174h329l-280 -1516h-223l243 1278l-739 -1278h-158l-264 1278l-231 -1278h-226z" />
<glyph unicode="N" horiz-adv-x="1536" d="M145 0l281 1516h227l574 -1154l209 1154h233l-280 -1516h-222l-577 1155l-211 -1155h-234z" />
<glyph unicode="O" horiz-adv-x="1742" d="M217 748v2q43 231 186.5 415.5t342 281.5t411.5 97q338 0 523 -228q140 -173 141 -404q0 -74 -15 -154q-61 -330 -333.5 -558.5t-610.5 -228.5q-223 0 -386 106.5t-230 284.5q-43 113 -43 238q0 72 14 148zM459 758q-12 -62 -12 -120q0 -163 95 -287q128 -167 367.5 -167 t426 171t227.5 401q11 60 11 116q0 160 -91 287q-123 172 -364.5 172t-429 -168t-230.5 -403v-2z" />
<glyph unicode="P" horiz-adv-x="1187" d="M137 0l281 1516h432q172 0 259 -24t148 -79q68 -61 94 -162q14 -56 14 -114q0 -47 -9 -97q-20 -109 -83 -212t-145 -160q-90 -61 -185 -87t-249 -26h-213l-102 -555h-242zM520 768h209q154 0 246 51q121 63 149 217q6 33 6 62q0 106 -77 155q-72 49 -232 50h-200z" />
<glyph unicode="Q" horiz-adv-x="1787" d="M229 754q59 324 328.5 557t611.5 233t528 -230q140 -174 140 -400q0 -72 -14 -150q-53 -287 -281 -508q88 -70 268 -84l-36 -199q-74 4 -115 9q-182 14 -307 122q-231 -133 -469 -133q-178 0 -317.5 65.5t-220.5 175.5t-113 251q-17 74 -16 151q-1 69 13 140zM483 498 q25 -90 78 -156t118.5 -97.5t125 -46t117.5 -14.5h2q162 0 284 76q-16 23 -153 160q-141 121 -342 121q-121 0 -230 -43zM485 694q164 51 289 51q211 0 361 -106q18 -12 36.5 -26.5t29.5 -24.5t37 -35t36 -35l50 -50l58 -58q164 141 201 354q12 64 12 123q0 166 -99 284 q-134 160 -366 160h-2q-211 0 -387 -136t-239 -353q-17 -70 -17 -126q-1 -11 0 -22z" />
<glyph unicode="R" horiz-adv-x="1247" d="M137 0l281 1516h428q313 0 424 -89q82 -61 114 -171q19 -65 20 -136q0 -49 -9 -102q-33 -166 -140 -289q-119 -131 -323 -166l252 -563h-256l-289 684h53q225 0 316 66q121 92 149 247q7 33 7 64q0 43 -13 84q-23 70 -76 108q-70 49 -248 50h-206l-242 -1303h-242z" />
<glyph unicode="S" horiz-adv-x="1122" d="M154 449h239q-4 -29 -3 -55q0 -46 11 -83q18 -57 55.5 -84.5t72 -39t69.5 -11.5q102 0 190.5 70.5t106.5 171.5q10 23 4 48.5t-5 40.5t-14.5 34.5t-22.5 30t-30.5 25.5t-37 23.5t-43 20.5t-48 20.5t-53.5 20.5q-25 10 -37 14q-49 16 -80.5 29.5t-88 49.5t-86 76 t-48.5 107q-10 38 -10 81q0 33 6 69q37 201 202 318.5t357 117.5q78 0 147.5 -22.5t129 -68.5t88.5 -131q19 -57 19 -125q0 -34 -5 -71h-238q0 41 -6 70t-22.5 65.5t-57.5 57t-102 20.5q-94 0 -172 -59t-96 -154q-4 -24 -5 -44q0 -65 45 -101q58 -47 246 -121q12 -6 19 -8 q78 -35 127 -66.5t97 -81t64 -117.5q7 -33 7 -71q0 -40 -8 -86q-35 -195 -189.5 -327t-386.5 -132q-225 0 -336 129q-82 95 -82 241q1 51 11 108z" />
<glyph unicode="T" horiz-adv-x="970" d="M258 1303l39 213h938l-39 -213h-348l-242 -1303h-241l241 1303h-348z" />
<glyph unicode="U" horiz-adv-x="1343" d="M228 316q-4 34 -3 69q0 90 25 184l174 947h242l-174 -947q-16 -80 -16 -142q0 -73 22 -122q25 -55 80 -88t131 -33q160 0 249 117q35 41 57.5 89t31 82t20.5 97l174 947h240l-174 -947q-31 -164 -87.5 -275.5t-164.5 -189.5q-170 -133 -385 -133q-231 0 -342 131 q-87 92 -100 214z" />
<glyph unicode="V" horiz-adv-x="1427" d="M305 1516h250l213 -1221l666 1221h249l-852 -1516h-239z" />
<glyph unicode="W" horiz-adv-x="1923" d="M309 1516h246l80 -1186l516 1186h182l82 -1188l514 1188h246l-698 -1516h-224l-79 1149l-506 -1149h-230z" />
<glyph unicode="X" horiz-adv-x="1368" d="M20 0l672 791l-350 725h274l248 -547l447 547h272l-612 -730l377 -786h-275l-282 616l-502 -616h-269z" />
<glyph unicode="Y" horiz-adv-x="1239" d="M305 1516h262l195 -750l473 750h262l-655 -977l-101 -539h-241l100 539z" />
<glyph unicode="Z" horiz-adv-x="1021" d="M37 0l29 156l882 1147h-682l39 213h955l-35 -189l-856 -1114h667l-39 -213h-960z" />
<glyph unicode="[" horiz-adv-x="923" d="M160 -412l356 1928h543l-33 -179h-336l-291 -1568h336l-33 -181h-542z" />
<glyph unicode="\" horiz-adv-x="1144" d="M424 1516h238l303 -1721h-240z" />
<glyph unicode="]" horiz-adv-x="923" d="M70 -412l32 181h336l291 1568h-336l33 179h545l-357 -1928h-544z" />
<glyph unicode="^" horiz-adv-x="1228" d="M293 768l493 748h218l215 -748h-234l-127 557l-334 -557h-231z" />
<glyph unicode="_" horiz-adv-x="1024" d="M-47 -256l18 102h1024l-18 -102h-1024z" />
<glyph unicode="`" horiz-adv-x="1136" d="M532 1485l99 153l442 -272l-88 -131z" />
<glyph unicode="a" horiz-adv-x="1415" d="M178 557q47 254 242.5 422t439.5 168q154 0 249 -68.5t122 -160.5l37 196h213l-207 -1114h-213l37 195q-78 -111 -200 -169.5t-257 -58.5q-260 0 -384 173q-91 127 -91 292q0 60 12 125zM391 553q-7 -37 -7 -73q0 -52 14 -102q24 -85 104 -148.5t207 -63.5 q123 0 224 60.5t163 160.5q49 74 69 166q9 43 9 82q0 44 -11 84q-23 102 -103.5 165.5t-209.5 63.5q-170 0 -299 -115.5t-160 -277.5v-2z" />
<glyph unicode="b" horiz-adv-x="1400" d="M139 0l281 1516h213l-74 -404l-33 -176q92 102 213 155.5t236 55.5q229 0 367 -160q102 -118 102 -294q0 -63 -12 -132q-49 -264 -245 -429t-439 -165q-139 0 -235.5 61.5t-133.5 164.5l-35 -193h-205zM449 559q-8 -43 -9 -83q0 -111 63 -195q85 -115 251 -115 q180 0 306 117.5t157 273.5l2 2q7 40 7 77q0 115 -68 200q-89 113 -253 112q-168 0 -296.5 -113.5t-159.5 -275.5z" />
<glyph unicode="c" horiz-adv-x="1304" d="M178 557q47 248 247 419t449 171q203 0 342.5 -117t153.5 -315h-219q-23 111 -105.5 172t-199.5 61h-6q-151 0 -287 -108q-127 -106 -162 -283q-8 -44 -8 -83q0 -115 67 -198q89 -111 250 -110q131 2 232.5 67.5t157.5 157.5h219q-84 -184 -261.5 -304t-381.5 -120 q-264 0 -399 174q-100 130 -100 299q0 56 11 117z" />
<glyph unicode="d" horiz-adv-x="1411" d="M180 559q47 256 240.5 422t435.5 166q154 0 249 -66.5t122 -148.5l37 196l71 388h213l-280 -1516h-205l37 195q-166 -227 -459 -228q-256 0 -382 172q-92 125 -92 291q0 62 13 129zM391 557q-6 -39 -6 -74q0 -115 65 -202q85 -115 261 -115q164 0 301 117 q135 115 159 280q8 41 8 80q0 114 -69 195q-90 111 -254 110q-172 0 -303 -113.5t-160 -275.5z" />
<glyph unicode="e" horiz-adv-x="1298" d="M164 555q45 244 246.5 418t451.5 174q244 0 381 -164q105 -132 105 -303q0 -90 -29 -191h-952q-4 -29 -5 -56q0 -118 80 -192q98 -91 238 -91q221 0 356 188h221q-115 -182 -276 -277q-158 -94 -336 -94q-262 0 -393 177q-99 133 -99 299q0 54 11 112zM401 655h738 q2 17 2 34q0 99 -75 181q-85 94 -232 95h-7q-156 0 -275.5 -94.5t-150.5 -215.5z" />
<glyph unicode="f" horiz-adv-x="595" d="M162 0l176 948h-152l31 166h152l14 76q18 96 60 164.5t89.5 104.5t115 56.5t112.5 24.5t106 4l-30 -168q-43 -2 -67 -5t-65.5 -19.5t-69.5 -60.5t-40 -111l-12 -66h204l-30 -166h-205l-176 -948h-213z" />
<glyph unicode="g" horiz-adv-x="1402" d="M90 -117h246q25 -76 100 -129q78 -59 180 -59q152 0 285 104.5t166 282.5l23 115q-74 -102 -189 -166t-256 -64q-250 0 -382 168q-97 124 -97 292q0 60 12 126q49 258 244.5 426t441.5 168q135 0 232.5 -62.5t128.5 -158.5l35 188h213l-183 -985q-49 -264 -209 -414 q-96 -92 -230 -147t-276 -55q-221 0 -345 108t-140 262zM391 557q-7 -41 -7 -79q0 -112 63 -197q85 -115 258 -115q166 0 294 113q125 109 160 272q8 45 9 86q0 100 -50 178q-80 131 -268 131q-162 0 -294 -109.5t-163 -277.5z" />
<glyph unicode="h" horiz-adv-x="1302" d="M139 0l281 1516h213l-72 -383l-31 -175q66 94 173 143q103 46 215 46h10q244 0 327 -156q43 -80 44 -203q0 -81 -19 -180l-113 -608h-215l111 598q12 65 12 117q0 81 -28 133q-61 98 -216 98q-158 0 -256 -102q-82 -84 -106 -215l-117 -629h-213z" />
<glyph unicode="i" horiz-adv-x="491" d="M139 0l207 1114h213l-207 -1114h-213zM379 1290l41 226h213l-41 -226h-213z" />
<glyph unicode="j" horiz-adv-x="563" d="M-86 -426l33 170q25 0 35 2q102 10 143 75.5t63 190.5l205 1102h213l-203 -1096q-18 -96 -40.5 -160.5t-67.5 -132t-125 -104.5t-195 -45q-20 -2 -61 -2zM426 1288l41 228h213l-41 -228h-213z" />
<glyph unicode="k" horiz-adv-x="1095" d="M145 0l281 1516h215l-156 -842l519 440h258l-586 -489l393 -625h-248l-354 573l-107 -573h-215z" />
<glyph unicode="l" horiz-adv-x="491" d="M139 0l281 1516h213l-281 -1516h-213z" />
<glyph unicode="m" horiz-adv-x="1966" d="M139 0l207 1114h201l-29 -158q51 76 154.5 133.5t218.5 57.5q182 0 264 -119q16 -20 51 -108q51 68 101 110q139 117 317 117q188 0 279 -113q57 -74 66 -168q2 -22 2 -47q0 -84 -23 -205l-115 -614h-213l113 606q12 68 12 121q0 81 -29 127q-45 92 -180 92 q-152 0 -236 -106q-68 -82 -92 -226l-114 -614h-215l114 614q13 66 14 119q0 60 -18 103q-47 109 -190 110h-6q-142 0 -226 -108q-76 -86 -102 -228l-113 -610h-213z" />
<glyph unicode="n" horiz-adv-x="1302" d="M139 0l207 1114h201l-33 -172q136 205 410 205h6q127 -2 212 -47t116.5 -115t41.5 -158q3 -28 4 -54q0 -60 -16 -120l-121 -653h-215l113 604q10 57 10 106q0 88 -34 147q-51 89 -201 89h-6q-154 -2 -246 -89t-121 -236l-115 -621h-213z" />
<glyph unicode="o" horiz-adv-x="1341" d="M178 557l2 2q43 236 238.5 412t464 176t397.5 -176q97 -132 97 -299q0 -56 -11 -115q-43 -238 -238.5 -413t-464 -175t-398.5 175q-98 132 -98 299q0 55 11 114zM391 555q-8 -42 -8 -81q0 -113 68 -195q90 -111 249.5 -111t290.5 111.5t162 277.5q9 45 9 85 q0 111 -65 193q-89 112 -251 111q-160 0 -291 -111.5t-164 -277.5v-2z" />
<glyph unicode="p" horiz-adv-x="1409" d="M63 -406l283 1520h203l-37 -194q186 227 469 227q182 0 297 -93t148 -226q19 -74 19 -152q0 -61 -11 -125q-45 -242 -234.5 -413t-435.5 -171q-156 0 -251 66.5t-126 150.5l-35 -184l-76 -406h-213zM444 555q-8 -42 -7 -80q0 -112 67 -196q92 -113 256 -113 q168 0 299 113.5t160 277.5l2 2q7 38 6 73q0 108 -61 197q-81 119 -263 119q-164 0 -299 -114q-129 -113 -160 -279z" />
<glyph unicode="q" horiz-adv-x="1406" d="M176 545q49 262 242.5 432t441.5 170q154 0 246 -65.5t129 -157.5l35 190h205l-283 -1520h-213l76 406l35 188q-61 -86 -181.5 -153.5t-279.5 -67.5q-246 0 -372 168q-93 124 -93 288q0 58 12 122zM391 551q-7 -38 -7 -74q0 -110 67 -196q88 -115 258 -115q162 0 295 113 q133 111 163 276q10 46 11 87q0 107 -68 192q-92 115 -256 114q-180 0 -306 -118.5t-157 -276.5v-2z" />
<glyph unicode="r" horiz-adv-x="688" d="M139 0l207 1114h201l-31 -164q129 193 369 197l-39 -213h-15q-303 0 -368 -332l-111 -602h-213z" />
<glyph unicode="s" horiz-adv-x="954" d="M131 322h211q-2 -15 -2 -30q0 -70 43 -107q51 -44 123 -44q78 0 138.5 48.5t74.5 117.5q2 15 2 29q0 57 -42 90q-52 41 -206 94q-125 39 -186 106q-46 50 -46 128q0 26 5 55q29 154 154.5 246t283.5 92q61 0 117.5 -16.5t105.5 -51.5t74 -101q17 -47 17 -105 q0 -24 -3 -50h-211q3 18 4 34q0 45 -26 76q-33 40 -106 40h-7q-76 0 -126 -42t-60 -102q-1 -10 -1 -18q0 -49 37 -80q44 -37 136 -63q174 -51 231 -101q75 -65 75 -175q0 -29 -5 -60q-27 -160 -161 -262.5t-304 -102.5q-152 0 -258 89q-87 72 -87 203q0 30 5 63z" />
<glyph unicode="t" horiz-adv-x="667" d="M195 948l30 166h201l74 402h213l-74 -402h215l-31 -166h-215l-176 -948h-213l176 948h-200z" />
<glyph unicode="u" horiz-adv-x="1304" d="M210 322q3 70 13 139l121 653h213l-113 -604q-11 -61 -11 -111q0 -234 245 -233q152 2 245 89t119 237l117 622h213l-207 -1114h-200l32 172q-136 -205 -410 -205h-5q-104 0 -179 30t-114 79t-61 112q-19 56 -18 116v18z" />
<glyph unicode="v" horiz-adv-x="1110" d="M229 1114h224l151 -848l467 848h223l-632 -1114h-213z" />
<glyph unicode="w" horiz-adv-x="1656" d="M223 1114h223l107 -842l381 777h178l98 -777l414 842h221l-577 -1114h-203l-94 780l-379 -780h-203z" />
<glyph unicode="x" horiz-adv-x="1085" d="M10 0l508 580l-274 534h258l176 -383l317 383h254l-473 -534l297 -580h-260l-195 414l-348 -414h-260z" />
<glyph unicode="y" horiz-adv-x="1089" d="M176 -406l266 439l-225 1081h229l156 -815l463 815h229l-891 -1520h-227z" />
<glyph unicode="z" horiz-adv-x="874" d="M29 0l28 152l713 796h-549l31 166h784l-30 -168l-693 -780h564l-31 -166h-817z" />
<glyph unicode="{" horiz-adv-x="1015" d="M293 371l41 221q68 10 139.5 75.5t89.5 176.5l78 416q25 135 103.5 201.5t193.5 66.5h207l-31 -166h-113q-76 0 -106.5 -41t-48.5 -139l-76 -406q-14 -76 -67.5 -144.5t-97.5 -99t-87 -53.5q72 -20 120 -91t28 -181l-76 -408q-23 -92 -4.5 -136t94.5 -44h113l-33 -168 h-207q-113 0 -167 68.5t-30 204.5l76 407q31 177 -139 240z" />
<glyph unicode="|" horiz-adv-x="903" d="M502 -594v2376h184v-2376h-184z" />
<glyph unicode="}" horiz-adv-x="1015" d="M51 -549l33 168h113q76 0 106.5 40t48.5 140l76 408q12 72 66.5 137.5t98.5 94t83 44.5q-76 29 -120 102.5t-24 190.5l76 406q23 88 5.5 134t-95.5 46h-112l30 166h207q115 0 169 -66.5t30 -201.5l-78 -416q-20 -111 27 -176.5t112 -75.5l-41 -221q-199 -63 -229 -240 l-76 -407q-25 -135 -104.5 -204t-194.5 -69h-207z" />
<glyph unicode="~" horiz-adv-x="1228" d="M244 532q125 174 286 168q78 0 222 -69q6 -4 39.5 -20.5t46 -21.5t36 -15.5t42 -13.5t34.5 -3q84 0 203 135l23 -196q-141 -164 -267 -164q-84 0 -207 69q-127 74 -219 74q-111 2 -217 -135z" />
<glyph unicode="&#xa1;" horiz-adv-x="614" d="M123 -401l201 1087h221l-201 -1087h-221zM354 848l49 266h222l-50 -266h-221z" />
<glyph unicode="&#xa2;" d="M274 760q29 158 153 298t329 181l39 205h176l-39 -203q133 -33 215 -123t96 -213h-225q-49 131 -205 131q-119 0 -211 -78.5t-115 -191.5q-20 -113 39.5 -195t184.5 -82q150 0 247 121h232q-72 -129 -188.5 -214t-239.5 -107l-41 -217h-182l41 217q-133 31 -210 114.5 t-94.5 174t-1.5 182.5z" />
<glyph unicode="&#xa3;" d="M82 0l35 193h192q154 33 185 192q25 135 -105 272h-248l33 174h133q-49 98 -26 220q37 199 209 346t401 147q197 0 318.5 -119.5t107.5 -326.5h-225q-6 98 -64.5 165.5t-173.5 67.5q-123 0 -216 -82t-118 -205q-20 -117 45 -213h426l-33 -174h-311q111 -117 86 -256 q-14 -96 -125 -208h131q133 0 207 51q96 76 119 182q6 31 2 88h211q4 -59 -6 -119q-27 -150 -156 -266q-80 -66 -166 -97.5t-219 -31.5h-649z" />
<glyph unicode="&#xa4;" d="M84 250l199 168q-72 125 -45 280q31 162 151 289l-139 168l133 113l137 -170q147 94 305 94t267 -92l200 166l90 -111l-196 -166q70 -133 41 -291q-27 -152 -146 -280l136 -166l-132 -113l-133 164q-152 -96 -309.5 -96t-275.5 96l-193 -162zM440 698 q-20 -119 50.5 -204.5t189.5 -85.5t221.5 86t122.5 206q23 121 -46 207t-190 86q-119 0 -222 -86t-126 -207v-2z" />
<glyph unicode="&#xa5;" d="M143 418l33 180h418l20 107l-28 81h-373l33 181h280l-215 549h256l209 -590l432 590h252l-422 -549h283l-33 -181h-381l-55 -79l-21 -109h422l-32 -180h-422l-78 -418h-238l78 418h-418z" />
<glyph unicode="&#xa6;" horiz-adv-x="901" d="M502 -414v830h182v-830h-182zM502 772v832h182v-832h-182z" />
<glyph unicode="&#xa7;" horiz-adv-x="1284" d="M135 -39h211q-18 -143 52.5 -208.5t195.5 -65.5q123 0 200.5 59t98.5 150q8 68 -32 114.5t-128 91.5l-338 172q-18 10 -27.5 14.5t-30 16.5t-31.5 22.5t-29.5 28t-28.5 35t-21.5 43t-15.5 52t-3 60.5t7 72q33 193 260 322q-57 104 -37 225q35 180 181.5 279.5t324.5 99.5 q199 0 296 -109.5t73 -277.5h-211q2 111 -54.5 151t-150.5 40q-90 0 -162.5 -47.5t-89.5 -137.5q-6 -39 2 -68.5t33 -52t43 -34t49 -27.5l313 -158q41 -20 68 -38.5t67 -58.5t55 -99.5t1 -132.5q-35 -182 -244 -322q98 -113 70 -274q-33 -170 -179.5 -289t-361.5 -119 q-86 0 -164 23.5t-147.5 75t-102 147.5t-12.5 225zM418 647q-23 -119 96 -182l397 -199q55 25 103.5 77t62.5 118v2q10 72 -26.5 113.5t-112.5 76.5l-356 183q-141 -64 -164 -189z" />
<glyph unicode="&#xa8;" horiz-adv-x="1136" d="M494 1286l51 277h207l-52 -277h-206zM909 1286l52 277h206l-51 -277h-207z" />
<glyph unicode="&#xa9;" horiz-adv-x="1638" d="M178 758q59 324 328.5 554t603.5 230h2q213 0 373 -106.5t228.5 -286.5t29.5 -391q-61 -328 -331.5 -556.5t-594.5 -228.5q-328 0 -514 227.5t-125 557.5zM297 758q-53 -283 104.5 -478.5t436.5 -195.5q274 0 503.5 195.5t282.5 478.5q51 279 -102.5 476.5t-434.5 197.5 h-2q-283 0 -510 -197.5t-278 -476.5zM532 760q37 199 180.5 332t346.5 133q164 0 254 -94.5t78 -223.5h-144q-4 102 -65.5 146.5t-147.5 44.5q-137 0 -232 -96.5t-122 -241.5q-29 -156 37.5 -245t193.5 -89q27 0 56.5 6t79 27.5t94.5 77t73 137.5h146q-45 -174 -178 -274.5 t-301 -100.5q-188 0 -289 124t-60 337z" />
<glyph unicode="&#xaa;" horiz-adv-x="837" d="M281 1210q27 145 139 239.5t248 94.5q152 0 198 -131l21 111h137l-117 -629h-137l21 111q-90 -129 -250 -129q-139 0 -213 98t-47 235zM416 1204q-12 -72 30.5 -134t139.5 -62q131 0 205 110q29 39 38 92q6 55 -2 86q-33 117 -168 117q-86 0 -156.5 -59.5t-86.5 -147.5 v-2z" />
<glyph unicode="&#xab;" horiz-adv-x="798" d="M176 573l287 385h164l-287 -385l143 -380h-164zM483 573l287 385h164l-287 -385l144 -380h-164z" />
<glyph unicode="&#xac;" horiz-adv-x="1228" d="M215 629l37 205h1032l-106 -584h-207l69 379h-825z" />
<glyph unicode="&#xad;" horiz-adv-x="561" d="M88 475l39 211h561l-39 -211h-561z" />
<glyph unicode="&#xae;" horiz-adv-x="1638" d="M178 758q59 322 328.5 553t603.5 231h2q213 0 373 -106.5t228.5 -286.5t29.5 -391q-61 -328 -331.5 -556.5t-594.5 -228.5q-328 0 -514 227.5t-125 557.5zM297 758q-53 -281 104.5 -477.5t436.5 -196.5q274 0 503.5 195.5t282.5 478.5q51 276 -102.5 475t-434.5 199h-2 q-281 0 -509 -197.5t-279 -476.5zM543 315l164 889h372q51 0 98.5 -10t94.5 -34.5t69.5 -76t10.5 -125.5q-31 -154 -199 -215q66 -23 89.5 -69.5t14.5 -134.5q-16 -139 -18 -159t4 -65h-141q-10 23 10 207q6 31 2 60.5t-17.5 53t-54.5 37t-108 13.5h-178l-68 -371h-145z M774 788h187q33 2 46 2.5t54 9.5t63.5 24.5t47 48t32.5 77.5q8 41 -2 71t-28.5 44t-48 22.5t-47 9.5t-42.5 1h-205z" />
<glyph unicode="&#xaf;" horiz-adv-x="1136" d="M449 1335l30 170h733l-30 -170h-733z" />
<glyph unicode="&#xb0;" horiz-adv-x="819" d="M331.5 1163q22.5 123 124 208t224.5 85t191.5 -85t46.5 -208v-2q-23 -121 -123.5 -206t-223 -85t-192.5 85t-47.5 208zM453 1161q-12 -72 27.5 -123t111.5 -51t132 52.5t73 123.5q14 72 -27 123t-112.5 51t-131 -51t-73.5 -123v-2z" />
<glyph unicode="&#xb1;" horiz-adv-x="1228" d="M82 -92l37 207h1032l-37 -207h-1032zM201 551l39 207h413l62 336h205l-62 -336h414l-39 -207h-414l-61 -328h-205l61 328h-413z" />
<glyph unicode="&#xb2;" horiz-adv-x="782" d="M184 606l25 131q254 201 379 303q143 115 160 203q14 63 -11.5 104.5t-95.5 41.5q-72 0 -119 -54.5t-61 -134.5h-164q20 127 98 209q109 125 281 125q147 0 216 -71.5t44 -202.5q-14 -78 -56 -137.5t-124 -127.5q-201 -164 -299 -245h389l-27 -144h-635z" />
<glyph unicode="&#xb3;" horiz-adv-x="782" d="M219 885h172q-8 -72 28 -112t101 -40q72 0 122 42t63 110q10 55 -23 100t-115 45h-88l25 125h53q68 0 116 37t56 84q8 45 -13.5 77.5t-72.5 35.5q-111 0 -139 -115h-168q31 137 134 198.5t204 61.5q117 0 180.5 -68.5t46.5 -167.5q-25 -123 -153 -188q74 -29 108.5 -92.5 t20.5 -140.5q-23 -123 -134.5 -206t-250.5 -83q-82 0 -151 32.5t-99 90.5q-39 70 -23 174z" />
<glyph unicode="&#xb4;" horiz-adv-x="1136" d="M571 1374l541 275l43 -156l-543 -250z" />
<glyph unicode="&#xb5;" horiz-adv-x="1230" d="M61 -381l277 1495h213l-109 -586q-33 -178 9 -260q55 -102 192 -102q139 0 229 110q92 102 127 297l101 541h213l-207 -1114h-205l35 186q-129 -209 -326 -209q-184 0 -243 144l-27 -139l-66 -363h-213z" />
<glyph unicode="&#xb6;" horiz-adv-x="1306" d="M209 1110q23 121 87 206t152.5 126t170 57.5t167.5 16.5h631l-28 -160h-113l-295 -1587h-172l295 1585h-230l-294 -1585h-172l176 948q-199 0 -304.5 100t-70.5 293z" />
<glyph unicode="&#xb7;" horiz-adv-x="608" d="M266 387l49 266h224l-50 -266h-223z" />
<glyph unicode="&#xb8;" horiz-adv-x="1136" d="M322 -299h110q6 -63 68 -63q35 0 62.5 23.5t35.5 64.5q8 35 -12.5 57t-53.5 22q-41 0 -73 -38l-86 43l125 190h120l-75 -113q12 6 35 7q68 0 106.5 -46.5t24.5 -121.5q-14 -74 -75 -130.5t-153 -56.5q-18 0 -39.5 4t-53.5 18.5t-50 50.5t-16 89z" />
<glyph unicode="&#xb9;" horiz-adv-x="782" d="M399 1372l27 144h340l-168 -910h-164l141 766h-176z" />
<glyph unicode="&#xba;" horiz-adv-x="837" d="M305 1206v2q27 135 137.5 234.5t262.5 101.5q154 0 227.5 -100.5t48.5 -233.5q-27 -137 -141.5 -235t-259.5 -98q-147 0 -223.5 99t-51.5 230zM442 1206q-14 -82 33 -140t129 -58q80 0 150.5 58t87.5 144q16 84 -31 143.5t-129 59.5t-152.5 -57.5t-87.5 -147.5v-2z" />
<glyph unicode="&#xbb;" horiz-adv-x="798" d="M78 193l287 380l-144 383h164l143 -383l-286 -380h-164zM385 193l289 380l-146 383h164l144 -383l-287 -380h-164z" />
<glyph unicode="&#xbc;" horiz-adv-x="1658" d="M344 0l932 1516h182l-934 -1516h-180zM348 1372l27 144h340l-168 -910h-164l141 766h-176zM889 166l20 115l564 628h163l-112 -614h96l-25 -129h-96l-31 -166h-165l30 166h-444zM1094 295h266l74 403z" />
<glyph unicode="&#xbd;" horiz-adv-x="1728" d="M344 0l932 1516h182l-934 -1516h-180zM348 1372l27 144h340l-168 -910h-164l141 766h-176zM999 0l25 131q254 201 379 303q145 113 162 203q12 63 -13.5 104t-95.5 41q-72 0 -119 -54t-61 -134h-164q23 125 90 201q113 133 289 133q147 0 216 -72t44 -203 q-14 -78 -56 -137t-124 -127q-201 -164 -299 -246h389l-27 -143h-635z" />
<glyph unicode="&#xbe;" horiz-adv-x="1869" d="M248 885h170q-8 -72 27.5 -112t103.5 -40q72 0 122 42t62 110q10 55 -23.5 100t-115.5 45h-86l24 125h52q68 0 116 37t56 84q8 45 -13.5 77.5t-70.5 35.5q-59 0 -94 -33t-46 -82h-167q29 137 133 198.5t204 61.5q115 0 178.5 -68.5t47.5 -167.5q-25 -125 -154 -188 q74 -29 109 -92.5t20 -140.5q-23 -123 -133.5 -206t-249.5 -83q-84 0 -152.5 32.5t-99.5 94.5q-36 70 -20 170zM571 0l932 1516h183l-934 -1516h-181zM1110 166l20 115l564 628h164l-113 -614h96l-24 -129h-97l-30 -166h-166l30 166h-444zM1309 295h272l76 410z" />
<glyph unicode="&#xbf;" horiz-adv-x="1161" d="M111 2q12 63 40.5 119.5t80 110t86 84t102.5 83.5q80 63 127 122t60.5 92.5t23.5 80.5h225q-25 -111 -84 -198.5t-190 -194.5q-76 -63 -111 -97t-68.5 -82t-44.5 -97q-18 -100 33 -167t156 -67q96 0 175 59.5t112 161.5q4 12 14 51h233l-8 -45q-53 -209 -220 -328.5 t-357 -119.5q-203 0 -310.5 129t-74.5 303zM662 848l49 266h223l-49 -266h-223z" />
<glyph unicode="&#xc0;" horiz-adv-x="1486" d="M16 0l904 1516h219l331 -1516h-262l-78 358h-647l-204 -358h-263zM586 553h516l-133 682zM766 1823l100 153l441 -272l-90 -131z" />
<glyph unicode="&#xc1;" horiz-adv-x="1486" d="M16 0l904 1516h219l331 -1516h-262l-78 358h-647l-204 -358h-263zM586 553h516l-133 682zM815 1714l541 273l43 -156l-543 -250z" />
<glyph unicode="&#xc2;" horiz-adv-x="1486" d="M16 0l904 1516h219l331 -1516h-262l-78 358h-647l-204 -358h-263zM586 553h516l-133 682zM621 1620l405 295h150l292 -295h-221l-176 152l-227 -152h-223z" />
<glyph unicode="&#xc3;" horiz-adv-x="1486" d="M16 0l904 1516h219l331 -1516h-262l-78 358h-647l-204 -358h-263zM586 553h516l-133 682zM684 1817q104 76 225 75q63 0 174 -30q86 -31 160 -31q96 0 168 53l53 -141q-111 -80 -231 -80q-39 0 -174 33q-92 31 -156 30q-86 0 -166 -55z" />
<glyph unicode="&#xc4;" horiz-adv-x="1486" d="M16 0l904 1516h219l331 -1516h-262l-78 358h-647l-204 -358h-263zM586 553h516l-133 682zM733 1624l51 277h207l-51 -277h-207zM1149 1624l51 277h207l-51 -277h-207z" />
<glyph unicode="&#xc5;" horiz-adv-x="1486" d="M16 0l904 1516h219l331 -1516h-262l-78 358h-647l-204 -358h-263zM586 553h516l-133 682zM850 1788q16 94 94 159.5t172 65.5h2q92 0 146.5 -65.5t38.5 -159.5q-16 -92 -96.5 -158.5t-174.5 -66.5t-146 66.5t-36 158.5zM967 1790q-8 -45 17.5 -76t70.5 -31t83 31t46 76 t-17.5 76.5t-70.5 31.5h-2q-45 0 -82 -32.5t-45 -75.5z" />
<glyph unicode="&#xc6;" horiz-adv-x="1968" d="M-18 0l1331 1516h811l-39 -213h-547l-80 -431h539l-39 -210h-539l-84 -449h547l-39 -213h-782l72 383h-531l-332 -383h-288zM743 571h424l115 625z" />
<glyph unicode="&#xc7;" horiz-adv-x="1660" d="M221 760q59 319 325.5 551.5t610.5 232.5q145 0 264 -48t193 -124t117 -159t57 -166h-256q-31 100 -136.5 191t-281.5 93q-236 0 -422 -168t-229 -403q-45 -240 80 -408t362 -168q102 0 195.5 33t161 87t101.5 88t60 69h254q-111 -207 -327.5 -344t-466.5 -144l-60 -86 q16 6 37 7q66 0 107 -46.5t26 -121.5q-14 -74 -75.5 -130.5t-153.5 -56.5q-18 0 -40 4t-53.5 18.5t-50 50.5t-16.5 89h111q8 -63 67 -63q80 0 101 88q6 35 -14.5 57t-53.5 22q-41 0 -74 -38l-86 43l113 170q-295 35 -448.5 257t-98.5 523z" />
<glyph unicode="&#xc8;" horiz-adv-x="1099" d="M145 0l281 1516h848l-39 -213h-606l-80 -431h598l-39 -210h-598l-84 -449h606l-39 -213h-848zM582 1849l98 154l442 -270l-88 -131z" />
<glyph unicode="&#xc9;" horiz-adv-x="1099" d="M145 0l281 1516h848l-39 -213h-606l-80 -431h598l-39 -210h-598l-84 -449h606l-39 -213h-848zM623 1741l538 272l43 -153l-540 -250z" />
<glyph unicode="&#xca;" horiz-adv-x="1099" d="M145 0l281 1516h848l-39 -213h-606l-80 -431h598l-39 -210h-598l-84 -449h606l-39 -213h-848zM430 1647l410 295h147l293 -295h-223l-172 151l-232 -151h-223z" />
<glyph unicode="&#xcb;" horiz-adv-x="1099" d="M145 0l281 1516h848l-39 -213h-606l-80 -431h598l-39 -210h-598l-84 -449h606l-39 -213h-848zM543 1651l53 278h207l-53 -278h-207zM958 1651l54 278h207l-54 -278h-207z" />
<glyph unicode="&#xcc;" horiz-adv-x="534" d="M145 0l281 1516h242l-281 -1516h-242zM252 1845l100 154l439 -273l-89 -131z" />
<glyph unicode="&#xcd;" horiz-adv-x="534" d="M145 0l281 1516h242l-281 -1516h-242zM385 1737l541 272l43 -156l-543 -249z" />
<glyph unicode="&#xce;" horiz-adv-x="534" d="M145 0l281 1516h242l-281 -1516h-242zM145 1638l410 295h147l293 -295h-223l-172 152l-231 -152h-224z" />
<glyph unicode="&#xcf;" horiz-adv-x="534" d="M145 0l281 1516h242l-281 -1516h-242zM260 1647l51 276h207l-51 -276h-207zM676 1647l51 276h207l-51 -276h-207z" />
<glyph unicode="&#xd0;" horiz-adv-x="1482" d="M123 664l39 213h145l119 639h475q188 0 334.5 -50.5t237.5 -195.5q129 -201 71 -510q-63 -342 -297.5 -551t-593.5 -209h-508l123 664h-145zM426 213h256q258 0 416.5 147.5t204.5 395.5q47 236 -52 387q-106 160 -364 160h-258l-80 -426h352l-39 -213h-352z" />
<glyph unicode="&#xd1;" horiz-adv-x="1536" d="M145 0l281 1516h227l574 -1154l209 1154h233l-280 -1516h-222l-577 1155l-211 -1155h-234zM707 1812q111 76 227 76q70 0 172 -33q90 -29 160 -28q100 0 166 53l55 -143q-109 -78 -230 -78q-59 0 -174 33q-92 31 -155 30q-88 0 -166 -57z" />
<glyph unicode="&#xd2;" horiz-adv-x="1742" d="M217 748v2q43 231 186.5 415.5t342 281.5t411.5 97q338 0 523.5 -228.5t125.5 -557.5q-61 -330 -333.5 -558.5t-610.5 -228.5q-223 0 -386 106.5t-230.5 285t-28.5 385.5zM459 758q-45 -240 83 -407t367.5 -167t426 171t227.5 401q43 231 -80 403t-364.5 172t-429 -168 t-230.5 -403v-2zM903 1849l98 154l443 -270l-88 -131z" />
<glyph unicode="&#xd3;" horiz-adv-x="1742" d="M217 748v2q43 231 186.5 415.5t342 281.5t411.5 97q338 0 523.5 -228.5t125.5 -557.5q-61 -330 -333.5 -558.5t-610.5 -228.5q-223 0 -386 106.5t-230.5 285t-28.5 385.5zM459 758q-45 -240 83 -407t367.5 -167t426 171t227.5 401q43 231 -80 403t-364.5 172t-429 -168 t-230.5 -403v-2zM944 1741l539 272l43 -153l-541 -250z" />
<glyph unicode="&#xd4;" horiz-adv-x="1742" d="M217 748v2q43 231 186.5 415.5t342 281.5t411.5 97q338 0 523.5 -228.5t125.5 -557.5q-61 -330 -333.5 -558.5t-610.5 -228.5q-223 0 -386 106.5t-230.5 285t-28.5 385.5zM459 758q-45 -240 83 -407t367.5 -167t426 171t227.5 401q43 231 -80 403t-364.5 172t-429 -168 t-230.5 -403v-2zM752 1642l407 295h148l295 -295h-224l-174 152l-229 -152h-223z" />
<glyph unicode="&#xd5;" horiz-adv-x="1742" d="M217 748v2q43 231 186.5 415.5t342 281.5t411.5 97q338 0 523.5 -228.5t125.5 -557.5q-61 -330 -333.5 -558.5t-610.5 -228.5q-223 0 -386 106.5t-230.5 285t-28.5 385.5zM459 758q-45 -240 83 -407t367.5 -167t426 171t227.5 401q43 231 -80 403t-364.5 172t-429 -168 t-230.5 -403v-2zM811 1812q111 76 225 76q68 0 174 -33q90 -29 158 -28q98 0 168 53l53 -143q-106 -78 -229 -78q-55 0 -174 33q-92 31 -156 30q-84 0 -166 -57z" />
<glyph unicode="&#xd6;" horiz-adv-x="1742" d="M217 748v2q43 231 186.5 415.5t342 281.5t411.5 97q338 0 523.5 -228.5t125.5 -557.5q-61 -330 -333.5 -558.5t-610.5 -228.5q-223 0 -386 106.5t-230.5 285t-28.5 385.5zM459 758q-45 -240 83 -407t367.5 -167t426 171t227.5 401q43 231 -80 403t-364.5 172t-429 -168 t-230.5 -403v-2zM864 1651l54 278h206l-53 -278h-207zM1280 1651l53 278h207l-53 -278h-207z" />
<glyph unicode="&#xd7;" horiz-adv-x="1228" d="M135 147l426 359l-293 354l174 148l291 -357l426 357l121 -148l-424 -354l289 -359l-174 -147l-291 358l-424 -358z" />
<glyph unicode="&#xd8;" horiz-adv-x="1742" d="M133 -68l229 248q-90 92 -134 239.5t-9 338.5q61 336 332.5 561t607.5 225q209 0 371 -100l127 139h239l-233 -252q86 -94 131 -240.5t12 -332.5q-61 -330 -333.5 -558.5t-610.5 -228.5q-211 0 -362 97l-127 -136h-240zM459 762q-43 -240 84 -391l817 893q-92 68 -242 67 q-244 0 -430 -169t-229 -400zM668 250q92 -66 239 -66q242 0 428.5 171t227.5 401q43 221 -78 387z" />
<glyph unicode="&#xd9;" horiz-adv-x="1343" d="M228.5 316.5q-13.5 121.5 21.5 252.5l174 947h242l-174 -947q-35 -174 6 -264q25 -55 80 -88t131 -33q160 0 249 117q35 41 57.5 89t31 82t20.5 97l174 947h240l-174 -947q-31 -164 -87.5 -275.5t-164.5 -189.5q-170 -133 -385 -133q-231 0 -342 131q-86 93 -99.5 214.5z M635 1835l98 154l441 -271l-87 -131z" />
<glyph unicode="&#xda;" horiz-adv-x="1343" d="M228.5 316.5q-13.5 121.5 21.5 252.5l174 947h242l-174 -947q-35 -174 6 -264q25 -55 80 -88t131 -33q160 0 249 117q35 41 57.5 89t31 82t20.5 97l174 947h240l-174 -947q-31 -164 -87.5 -275.5t-164.5 -189.5q-170 -133 -385 -133q-231 0 -342 131q-86 93 -99.5 214.5z M780 1726l541 273l43 -154l-543 -250z" />
<glyph unicode="&#xdb;" horiz-adv-x="1343" d="M228.5 316.5q-13.5 121.5 21.5 252.5l174 947h242l-174 -947q-35 -174 6 -264q25 -55 80 -88t131 -33q160 0 249 117q35 41 57.5 89t31 82t20.5 97l174 947h240l-174 -947q-31 -164 -87.5 -275.5t-164.5 -189.5q-170 -133 -385 -133q-231 0 -342 131q-86 93 -99.5 214.5z M551 1632l407 295h148l295 -295h-223l-177 152l-227 -152h-223z" />
<glyph unicode="&#xdc;" horiz-adv-x="1343" d="M228.5 316.5q-13.5 121.5 21.5 252.5l174 947h242l-174 -947q-35 -174 6 -264q25 -55 80 -88t131 -33q160 0 249 117q35 41 57.5 89t31 82t20.5 97l174 947h240l-174 -947q-31 -164 -87.5 -275.5t-164.5 -189.5q-170 -133 -385 -133q-231 0 -342 131q-86 93 -99.5 214.5z M664 1638l51 277h207l-52 -277h-206zM1079 1638l51 277h207l-51 -277h-207z" />
<glyph unicode="&#xdd;" horiz-adv-x="1239" d="M305 1516h262l195 -750l473 750h262l-655 -977l-101 -539h-241l100 539zM756 1726l540 273l43 -154l-542 -250z" />
<glyph unicode="&#xde;" horiz-adv-x="1187" d="M137 0l281 1516h241l-47 -252h191q174 0 261 -22.5t146 -78.5q68 -61 94.5 -162.5t4.5 -212.5q-20 -109 -83 -212t-143 -158q-92 -63 -183 -88t-251 -25h-213l-57 -305h-242zM475 516h209q154 0 244 51q121 63 149 217q27 150 -69 217q-74 49 -234 50h-201z" />
<glyph unicode="&#xdf;" horiz-adv-x="1296" d="M135 0l170 918q35 184 74 278t119 170q86 88 198.5 135t221.5 47q199 0 299 -120.5t67 -294.5q-37 -213 -240 -312q141 -27 212 -138.5t44 -254.5q-37 -188 -200.5 -324.5t-374.5 -136.5q-143 2 -231 70.5t-103 195.5l-43 -233h-213zM424 412h129q-10 -117 49.5 -180.5 t163.5 -65.5q119 0 210 74.5t109 181.5q23 123 -45 194q-72 72 -258 74h-98l31 164h63q102 0 185.5 69.5t103.5 176.5q20 117 -37 183.5t-170 66.5q-145 0 -237 -121q-61 -84 -95 -258z" />
<glyph unicode="&#xe0;" horiz-adv-x="1415" d="M178 557q47 254 242.5 422t439.5 168q154 0 249 -68.5t122 -160.5l37 196h213l-207 -1114h-213l37 195q-78 -111 -200 -169.5t-257 -58.5q-260 0 -384 173t-79 417zM391 553q-16 -90 7.5 -175t103.5 -148.5t207 -63.5q123 0 224 60.5t163 160.5q49 74 69 166 q18 90 -2 166q-23 102 -103.5 165.5t-209.5 63.5q-170 0 -299 -115.5t-160 -277.5v-2zM655 1485l99 153l442 -272l-88 -131z" />
<glyph unicode="&#xe1;" horiz-adv-x="1415" d="M178 557q47 254 242.5 422t439.5 168q154 0 249 -68.5t122 -160.5l37 196h213l-207 -1114h-213l37 195q-78 -111 -200 -169.5t-257 -58.5q-260 0 -384 173t-79 417zM391 553q-16 -90 7.5 -175t103.5 -148.5t207 -63.5q123 0 224 60.5t163 160.5q49 74 69 166 q18 90 -2 166q-23 102 -103.5 165.5t-209.5 63.5q-170 0 -299 -115.5t-160 -277.5v-2zM707 1374l540 275l43 -156l-542 -250z" />
<glyph unicode="&#xe2;" horiz-adv-x="1415" d="M178 557q47 254 242.5 422t439.5 168q154 0 249 -68.5t122 -160.5l37 196h213l-207 -1114h-213l37 195q-78 -111 -200 -169.5t-257 -58.5q-260 0 -384 173t-79 417zM391 553q-16 -90 7.5 -175t103.5 -148.5t207 -63.5q123 0 224 60.5t163 160.5q49 74 69 166 q18 90 -2 166q-23 102 -103.5 165.5t-209.5 63.5q-170 0 -299 -115.5t-160 -277.5v-2zM504 1282l409 295h148l293 -295h-224l-172 152l-231 -152h-223z" />
<glyph unicode="&#xe3;" horiz-adv-x="1415" d="M178 557q47 254 242.5 422t439.5 168q154 0 249 -68.5t122 -160.5l37 196h213l-207 -1114h-213l37 195q-78 -111 -200 -169.5t-257 -58.5q-260 0 -384 173t-79 417zM391 553q-16 -90 7.5 -175t103.5 -148.5t207 -63.5q123 0 224 60.5t163 160.5q49 74 69 166 q18 90 -2 166q-23 102 -103.5 165.5t-209.5 63.5q-170 0 -299 -115.5t-160 -277.5v-2zM569 1450q106 78 226 78q72 0 174 -33q96 -31 159 -31q94 0 166 56l56 -144q-113 -78 -230 -78q-61 0 -176 33q-104 31 -156 31q-88 0 -165 -57z" />
<glyph unicode="&#xe4;" horiz-adv-x="1415" d="M178 557q47 254 242.5 422t439.5 168q154 0 249 -68.5t122 -160.5l37 196h213l-207 -1114h-213l37 195q-78 -111 -200 -169.5t-257 -58.5q-260 0 -384 173t-79 417zM391 553q-16 -90 7.5 -175t103.5 -148.5t207 -63.5q123 0 224 60.5t163 160.5q49 74 69 166 q18 90 -2 166q-23 102 -103.5 165.5t-209.5 63.5q-170 0 -299 -115.5t-160 -277.5v-2zM608 1286l51 277h207l-51 -277h-207zM1024 1286l51 277h207l-51 -277h-207z" />
<glyph unicode="&#xe5;" horiz-adv-x="1415" d="M178 557q47 254 242.5 422t439.5 168q154 0 249 -68.5t122 -160.5l37 196h213l-207 -1114h-213l37 195q-78 -111 -200 -169.5t-257 -58.5q-260 0 -384 173t-79 417zM391 553q-16 -90 7.5 -175t103.5 -148.5t207 -63.5q123 0 224 60.5t163 160.5q49 74 69 166 q18 90 -2 166q-23 102 -103.5 165.5t-209.5 63.5q-170 0 -299 -115.5t-160 -277.5v-2zM715 1436q16 94 95 160.5t173 66.5h2q92 0 146.5 -66.5t37.5 -160.5q-16 -92 -95 -159t-173 -67t-148 67t-38 159zM833.5 1438q-8.5 -45 17.5 -76t71 -31t82.5 31t46 76t-17 76.5 t-70.5 31.5h-2q-45 0 -82 -31.5t-45.5 -76.5z" />
<glyph unicode="&#xe6;" horiz-adv-x="2291" d="M171 398q-3 81 7 157q47 252 242.5 422t445.5 170q139 0 234.5 -63.5t126.5 -172.5l39 203h196l-37 -201q168 233 437 234q238 0 368 -170q154 -190 76 -481h-946q-8 -98 20.5 -171t80.5 -108t103.5 -51t102.5 -16q195 0 361 188h219q-102 -162 -258 -266.5t-340 -104.5 q-135 0 -227.5 64.5t-127.5 179.5l-39 -211h-196l39 211q-68 -109 -192 -176.5t-261 -67.5q-113 0 -204 37t-143 98.5t-88 138t-39 157.5zM393 559q-33 -170 58.5 -281.5t259.5 -111.5q158 0 290 115.5t160 273.5q31 164 -55 276q-90 117 -256 117q-174 0 -302 -119.5 t-155 -267.5v-2zM1391 643h733q-2 160 -85 241t-220 81q-164 0 -293 -115q-84 -76 -135 -207z" />
<glyph unicode="&#xe7;" horiz-adv-x="1304" d="M180 559q45 248 245 418t449 170q203 0 342.5 -117t153.5 -315h-219q-23 106 -106.5 167.5t-200.5 61.5q-158 0 -291 -108q-129 -106 -162 -279q-31 -170 58.5 -280.5t250.5 -110.5q131 2 232.5 67.5t157.5 157.5h219q-84 -180 -254 -297t-375 -125l-55 -82q14 6 37 7 q66 0 106.5 -46.5t26.5 -121.5q-14 -74 -76 -130.5t-154 -56.5q-18 0 -39.5 4t-53.5 18.5t-50.5 50.5t-15.5 89h110q8 -63 68 -63q80 0 100 88q6 35 -14.5 57t-53.5 22q-41 0 -73 -38l-86 43l108 167q-209 33 -318.5 195t-66.5 387z" />
<glyph unicode="&#xe8;" horiz-adv-x="1298" d="M164 555q45 244 246.5 418t451.5 174q244 0 381 -164q160 -201 76 -494h-952q-23 -158 75.5 -248.5t237.5 -90.5q221 0 356 188h221q-115 -182 -276 -277q-158 -94 -336 -94q-262 0 -393 177.5t-88 410.5zM401 655h738q14 119 -73 215.5t-239 94.5q-156 0 -275.5 -94.5 t-150.5 -215.5zM614 1485l99 153l442 -272l-90 -131z" />
<glyph unicode="&#xe9;" horiz-adv-x="1298" d="M164 555q45 244 246.5 418t451.5 174q244 0 381 -164q160 -201 76 -494h-952q-23 -158 75.5 -248.5t237.5 -90.5q221 0 356 188h221q-115 -182 -276 -277q-158 -94 -336 -94q-262 0 -393 177.5t-88 410.5zM401 655h738q14 119 -73 215.5t-239 94.5q-156 0 -275.5 -94.5 t-150.5 -215.5zM649 1374l539 275l45 -156l-545 -250z" />
<glyph unicode="&#xea;" horiz-adv-x="1298" d="M164 555q45 244 246.5 418t451.5 174q244 0 381 -164q160 -201 76 -494h-952q-23 -158 75.5 -248.5t237.5 -90.5q221 0 356 188h221q-115 -182 -276 -277q-158 -94 -336 -94q-262 0 -393 177.5t-88 410.5zM401 655h738q14 119 -73 215.5t-239 94.5q-156 0 -275.5 -94.5 t-150.5 -215.5zM463 1282l407 295h148l293 -295h-221l-175 152l-229 -152h-223z" />
<glyph unicode="&#xeb;" horiz-adv-x="1298" d="M164 555q45 244 246.5 418t451.5 174q244 0 381 -164q160 -201 76 -494h-952q-23 -158 75.5 -248.5t237.5 -90.5q221 0 356 188h221q-115 -182 -276 -277q-158 -94 -336 -94q-262 0 -393 177.5t-88 410.5zM401 655h738q14 119 -73 215.5t-239 94.5q-156 0 -275.5 -94.5 t-150.5 -215.5zM571 1286l52 277h206l-51 -277h-207zM987 1286l51 277h207l-51 -277h-207z" />
<glyph unicode="&#xec;" horiz-adv-x="491" d="M139 0l207 1114h213l-207 -1114h-213zM168 1485l98 153l443 -272l-88 -131z" />
<glyph unicode="&#xed;" horiz-adv-x="491" d="M139 0l207 1114h213l-207 -1114h-213zM289 1374l540 275l43 -156l-542 -250z" />
<glyph unicode="&#xee;" horiz-adv-x="491" d="M59 1282l410 295h147l293 -295h-223l-172 152l-229 -152h-226zM139 0l207 1114h213l-207 -1114h-213z" />
<glyph unicode="&#xef;" horiz-adv-x="491" d="M139 0l207 1114h213l-207 -1114h-213zM174 1286l51 277h205l-51 -277h-205zM588 1286l51 277h207l-51 -277h-207z" />
<glyph unicode="&#xf0;" horiz-adv-x="1341" d="M178 555q51 264 240.5 422t415.5 160q88 0 165.5 -35t122.5 -96q-12 49 -51 100q-70 100 -170 158l-495 -134l28 148l322 86q-76 43 -240 104l236 66q121 -45 239 -117l445 117l-29 -148l-279 -73q162 -117 228 -303q63 -178 20 -410q-51 -279 -254.5 -454t-457.5 -177 q-248 0 -390.5 160t-95.5 426zM391 557q-29 -164 55 -276.5t256 -112.5t299 116.5t156 274.5q29 154 -56 271.5t-247 117.5q-178 0 -305 -113.5t-156 -275.5z" />
<glyph unicode="&#xf1;" horiz-adv-x="1302" d="M139 0l207 1114h201l-33 -172q137 207 416 205q127 -2 212 -47t116.5 -115t42 -158t-12.5 -174l-121 -653h-215l113 604q29 162 -23.5 253t-207.5 89q-154 -2 -246 -89t-121 -236l-115 -621h-213zM524 1450q106 78 226 78q72 0 174 -33q96 -31 159 -31q92 0 168 56 l54 -144q-113 -78 -230 -78q-61 0 -176 33q-104 31 -156 31q-88 0 -165 -57z" />
<glyph unicode="&#xf2;" horiz-adv-x="1341" d="M178 557l2 2q43 236 238.5 412t464 176t397.5 -176t86 -414t-238.5 -413t-464 -175t-398.5 175t-87 413zM391 555q-31 -166 59.5 -276.5t250 -110.5t290.5 111.5t162 277.5q33 166 -56 277.5t-251 111.5q-160 0 -291 -111.5t-164 -277.5v-2zM635 1485l98 153l443 -272 l-89 -131z" />
<glyph unicode="&#xf3;" horiz-adv-x="1341" d="M178 557l2 2q43 236 238.5 412t464 176t397.5 -176t86 -414t-238.5 -413t-464 -175t-398.5 175t-87 413zM391 555q-31 -166 59.5 -276.5t250 -110.5t290.5 111.5t162 277.5q33 166 -56 277.5t-251 111.5q-160 0 -291 -111.5t-164 -277.5v-2zM670 1374l540 275l43 -156 l-542 -250z" />
<glyph unicode="&#xf4;" horiz-adv-x="1341" d="M178 557l2 2q43 236 238.5 412t464 176t397.5 -176t86 -414t-238.5 -413t-464 -175t-398.5 175t-87 413zM391 555q-31 -166 59.5 -276.5t250 -110.5t290.5 111.5t162 277.5q33 166 -56 277.5t-251 111.5q-160 0 -291 -111.5t-164 -277.5v-2zM483 1282l410 295h147 l293 -295h-223l-172 152l-229 -152h-226z" />
<glyph unicode="&#xf5;" horiz-adv-x="1341" d="M178 557l2 2q43 236 238.5 412t464 176t397.5 -176t86 -414t-238.5 -413t-464 -175t-398.5 175t-87 413zM391 555q-31 -166 59.5 -276.5t250 -110.5t290.5 111.5t162 277.5q33 166 -56 277.5t-251 111.5q-160 0 -291 -111.5t-164 -277.5v-2zM543 1450q106 78 225 78 q76 0 174 -33q100 -31 160 -31q92 0 168 56l53 -144q-109 -78 -229 -78q-59 0 -174 33q-109 31 -156 31q-86 0 -168 -57z" />
<glyph unicode="&#xf6;" horiz-adv-x="1341" d="M178 557l2 2q43 236 238.5 412t464 176t397.5 -176t86 -414t-238.5 -413t-464 -175t-398.5 175t-87 413zM391 555q-31 -166 59.5 -276.5t250 -110.5t290.5 111.5t162 277.5q33 166 -56 277.5t-251 111.5q-160 0 -291 -111.5t-164 -277.5v-2zM598 1286l51 277h205 l-51 -277h-205zM1014 1286l51 277h205l-51 -277h-205z" />
<glyph unicode="&#xf7;" horiz-adv-x="1228" d="M176 412l39 206h1028l-39 -206h-1028zM500 -63l47 253h205l-47 -253h-205zM668 840l47 256h205l-48 -256h-204z" />
<glyph unicode="&#xf8;" horiz-adv-x="1341" d="M88 -70l186 203q-66 76 -92 186.5t-4 235.5q45 240 240.5 416t466.5 176q168 0 264 -68l92 105h217l-186 -205q141 -172 94 -422q-43 -240 -238.5 -415t-461.5 -175q-160 0 -267 68l-94 -105h-217zM391 557q-27 -160 53 -250l551 600q-61 39 -147 39q-164 0 -295 -111.5 t-162 -277.5zM555 207q61 -41 145 -41q168 0 295 113.5t158 277.5q29 154 -49 246z" />
<glyph unicode="&#xf9;" horiz-adv-x="1304" d="M210 321.5q3 69.5 13 139.5l121 653h213l-113 -604q-63 -344 234 -344q152 2 245 89t119 237l117 622h213l-207 -1114h-200l32 172q-137 -207 -415 -205q-104 0 -179 30t-114 79t-60.5 112.5t-18.5 133zM549 1485l100 153l443 -272l-91 -131z" />
<glyph unicode="&#xfa;" horiz-adv-x="1304" d="M210 321.5q3 69.5 13 139.5l121 653h213l-113 -604q-63 -344 234 -344q152 2 245 89t119 237l117 622h213l-207 -1114h-200l32 172q-137 -207 -415 -205q-104 0 -179 30t-114 79t-60.5 112.5t-18.5 133zM696 1374l539 275l45 -156l-545 -250z" />
<glyph unicode="&#xfb;" horiz-adv-x="1304" d="M210 321.5q3 69.5 13 139.5l121 653h213l-113 -604q-63 -344 234 -344q152 2 245 89t119 237l117 622h213l-207 -1114h-200l32 172q-137 -207 -415 -205q-104 0 -179 30t-114 79t-60.5 112.5t-18.5 133zM465 1282l409 295h148l293 -295h-223l-172 152l-230 -152h-225z " />
<glyph unicode="&#xfc;" horiz-adv-x="1304" d="M210 321.5q3 69.5 13 139.5l121 653h213l-113 -604q-63 -344 234 -344q152 2 245 89t119 237l117 622h213l-207 -1114h-200l32 172q-137 -207 -415 -205q-104 0 -179 30t-114 79t-60.5 112.5t-18.5 133zM580 1286l51 277h205l-52 -277h-204zM995 1286l52 277h204 l-51 -277h-205z" />
<glyph unicode="&#xfd;" horiz-adv-x="1089" d="M176 -406l266 439l-225 1081h229l156 -815l463 815h229l-891 -1520h-227zM616 1374l539 275l45 -156l-545 -250z" />
<glyph unicode="&#xfe;" horiz-adv-x="1411" d="M63 -406l357 1922h213l-84 -451l-25 -137q84 109 208 164t251 55q176 0 292 -90t152.5 -222.5t10.5 -283.5q-47 -248 -238.5 -416t-433.5 -168q-152 0 -248 63.5t-131 153.5l-27 -141l-84 -449h-213zM444 553q-29 -145 60 -266q90 -121 260 -121t300 113.5t161 277.5l2 2 q29 160 -58.5 273.5t-259.5 113.5q-166 0 -301 -115q-133 -116 -164 -278z" />
<glyph unicode="&#xff;" horiz-adv-x="1089" d="M176 -406l266 439l-225 1081h229l156 -815l463 815h229l-891 -1520h-227zM471 1286l51 277h207l-51 -277h-207zM887 1286l51 277h207l-51 -277h-207z" />
<glyph unicode="&#x152;" horiz-adv-x="2308" d="M217 756q61 328 324.5 558t607.5 230q201 0 329 -84t167 -211l24 135l25 132h782l-39 -213h-549l-80 -431h539l-39 -210h-539l-83 -449h548l-39 -213h-782l25 133l24 133q-117 -139 -280.5 -217t-327.5 -78q-332 0 -514 226.5t-123 558.5zM457 754q-27 -145 13 -274.5 t152.5 -212.5t274.5 -83q244 0 427 170t228 408q41 242 -81.5 405.5t-360.5 163.5q-242 0 -425 -168t-228 -407v-2z" />
<glyph unicode="&#x153;" horiz-adv-x="2277" d="M172 391q-4 82 6 164q45 246 245 419t464 173q158 0 271.5 -80t150.5 -205q72 106 210 193.5t314 87.5q246 0 383 -174q74 -94 95.5 -217t-19.5 -254h-946q-18 -162 69.5 -255t233.5 -93q111 0 204 50t154 138h221q-106 -164 -235 -252q-182 -119 -373 -119 q-184 0 -288.5 85t-135.5 202q-86 -131 -225.5 -209t-313.5 -78q-113 0 -204 36t-147 94.5t-93 135t-41 158.5zM391 555q-29 -164 60.5 -276.5t250.5 -112.5q166 0 293 120t156 269q29 152 -55 272.5t-248 120.5q-158 0 -291 -109.5t-166 -281.5v-2zM1380 645h725 q8 121 -71.5 218.5t-231.5 97.5q-139 0 -258 -88.5t-164 -227.5z" />
<glyph unicode="&#x178;" horiz-adv-x="1239" d="M305 1516h262l195 -750l473 750h262l-655 -977l-101 -539h-241l100 539zM612 1638l52 277h204l-51 -277h-205zM1028 1638l51 277h205l-51 -277h-205z" />
<glyph unicode="&#x2c6;" horiz-adv-x="1136" d="M381 1282l410 295h147l293 -295h-223l-172 152l-232 -152h-223z" />
<glyph unicode="&#x2dc;" horiz-adv-x="1136" d="M440 1450q106 78 226 78q72 0 174 -33q100 -31 159 -31q92 0 168 56l54 -144q-109 -78 -230 -78q-57 0 -176 33q-104 31 -156 31q-84 0 -165 -57z" />
<glyph unicode="&#x2000;" horiz-adv-x="1005" />
<glyph unicode="&#x2001;" horiz-adv-x="2013" />
<glyph unicode="&#x2002;" horiz-adv-x="1005" />
<glyph unicode="&#x2003;" horiz-adv-x="2013" />
<glyph unicode="&#x2004;" horiz-adv-x="669" />
<glyph unicode="&#x2005;" horiz-adv-x="501" />
<glyph unicode="&#x2006;" horiz-adv-x="333" />
<glyph unicode="&#x2007;" horiz-adv-x="333" />
<glyph unicode="&#x2008;" horiz-adv-x="249" />
<glyph unicode="&#x2009;" horiz-adv-x="401" />
<glyph unicode="&#x200a;" horiz-adv-x="110" />
<glyph unicode="&#x2010;" horiz-adv-x="561" d="M88 475l39 211h561l-39 -211h-561z" />
<glyph unicode="&#x2011;" horiz-adv-x="561" d="M88 475l39 211h561l-39 -211h-561z" />
<glyph unicode="&#x2012;" horiz-adv-x="561" d="M88 475l39 211h561l-39 -211h-561z" />
<glyph unicode="&#x2013;" horiz-adv-x="1024" d="M160 475l39 211h880l-39 -211h-880z" />
<glyph unicode="&#x2014;" horiz-adv-x="2048" d="M160 475l39 211h1904l-39 -211h-1904z" />
<glyph unicode="&#x2018;" horiz-adv-x="608" d="M461 1516h190l76 -424h-166z" />
<glyph unicode="&#x2019;" horiz-adv-x="608" d="M287 1092l231 424h193l-258 -424h-166z" />
<glyph unicode="&#x201a;" horiz-adv-x="608" d="M51 -182l232 424h192l-258 -424h-166z" />
<glyph unicode="&#x201c;" horiz-adv-x="966" d="M504 1516h190l76 -424h-166zM795 1516h190l76 -424h-166z" />
<glyph unicode="&#x201d;" horiz-adv-x="966" d="M311 1092l232 424h190l-256 -424h-166zM602 1092l232 424h190l-256 -424h-166z" />
<glyph unicode="&#x201e;" horiz-adv-x="966" d="M76 -182l231 424h191l-256 -424h-166zM367 -182l231 424h190l-256 -424h-165z" />
<glyph unicode="&#x2022;" horiz-adv-x="1179" d="M479 768q20 104 106.5 179t194.5 75h2q102 0 162 -75t39 -179q-18 -104 -105 -178t-191.5 -74t-165 74t-42.5 178z" />
<glyph unicode="&#x2026;" horiz-adv-x="2048" d="M231 0l50 268h223l-49 -268h-224zM913 0l50 268h223l-49 -268h-224zM1595 0l50 268h223l-49 -268h-224z" />
<glyph unicode="&#x202f;" horiz-adv-x="401" />
<glyph unicode="&#x2039;" horiz-adv-x="479" d="M162 573l287 383h163l-286 -383l143 -380h-164z" />
<glyph unicode="&#x203a;" horiz-adv-x="479" d="M80 193l287 380l-144 383h164l143 -383l-286 -380h-164z" />
<glyph unicode="&#x205f;" horiz-adv-x="501" />
<glyph unicode="&#x20ac;" horiz-adv-x="1136" d="M123 553l53 156h135q4 37 8 51q2 12 7.5 39.5t9.5 42.5h-170l53 155h158q170 549 581 549q104 0 180 -35.5t114 -96t54.5 -121t16.5 -126.5q0 -6 -1 -17t-1 -15h-199q-2 104 -54 160.5t-142 56.5q-115 0 -195 -88t-135 -267h483l-53 -155h-471q-4 -14 -9 -42t-7 -40 q-4 -14 -9 -51h453l-53 -156h-418q-2 -23 -2 -66q0 -164 44 -242.5t155 -78.5q39 0 70.5 7t71.5 29.5t76 73t62 127.5h203q-59 -229 -201.5 -330.5t-331.5 -101.5q-373 0 -372 475q0 33 4 107h-168z" />
<glyph unicode="&#x2122;" horiz-adv-x="2027" d="M287 1374l26 142h600l-26 -142h-217l-142 -768h-168l142 768h-215zM868 606l168 910h213l166 -682l416 682h213l-168 -910h-158l131 713l-422 -713h-110l-160 709l-131 -709h-158z" />
<glyph unicode="&#xe000;" horiz-adv-x="1115" d="M0 1115h1115v-1115h-1115v1115z" />
<glyph unicode="&#xfb01;" horiz-adv-x="1040" d="M162 0l176 948h-152l31 166h152l14 76q18 96 60 164.5t89.5 104.5t115 56.5t112.5 24.5t106 4l-30 -168q-43 -2 -67 -5t-65.5 -19.5t-69.5 -60.5t-40 -111l-12 -66h526l-207 -1114h-213l176 948h-313l-176 -948h-213zM928 1290l41 226h213l-41 -226h-213z" />
<glyph unicode="&#xfb02;" horiz-adv-x="1040" d="M162 0l176 948h-152l31 166h152l14 76q18 96 60 164.5t89.5 104.5t115 56.5t112.5 24.5t106 4l-30 -168q-43 -2 -67 -5t-65.5 -19.5t-69.5 -60.5t-40 -111l-12 -66h313l74 399h213l-281 -1513h-213l176 948h-313l-176 -948h-213z" />
<glyph unicode="&#xfb03;" horiz-adv-x="1683" d="M1331 0l207 1114h213l-207 -1114h-213zM1571 1290l41 226h213l-41 -226h-213zM758 0l176 948h-152l31 166h152l14 76q18 96 60 164.5t89.5 104.5t115 56.5t112.5 24.5t106 4l-30 -168q-43 -2 -67 -5t-65.5 -19.5t-69.5 -60.5t-40 -111l-12 -66h204l-30 -166h-205 l-176 -948h-213zM162 0l176 948h-152l31 166h152l14 76q18 96 60 164.5t89.5 104.5t115 56.5t112.5 24.5t106 4l-30 -168q-43 -2 -67 -5t-65.5 -19.5t-69.5 -60.5t-40 -111l-12 -66h204l-30 -166h-205l-176 -948h-213z" />
<glyph unicode="&#xfb04;" horiz-adv-x="1683" d="M1331 0l281 1516h213l-281 -1516h-213zM758 0l176 948h-152l31 166h152l14 76q18 96 60 164.5t89.5 104.5t115 56.5t112.5 24.5t106 4l-30 -168q-43 -2 -67 -5t-65.5 -19.5t-69.5 -60.5t-40 -111l-12 -66h204l-30 -166h-205l-176 -948h-213zM162 0l176 948h-152l31 166 h152l14 76q18 96 60 164.5t89.5 104.5t115 56.5t112.5 24.5t106 4l-30 -168q-43 -2 -67 -5t-65.5 -19.5t-69.5 -60.5t-40 -111l-12 -66h204l-30 -166h-205l-176 -948h-213z" />
</font>
</defs>
</svg>
